<svg xmlns="http://www.w3.org/2000/svg" width="32" height="32" viewBox="0 0 32 32" fill="none">
  <path d="M16.9224 2.63735L29.5037 8.57245C29.8214 8.74765 30.0001 9.07635 30.0001 9.43735V22.5624C30.0001 22.9234 29.8214 23.2521 29.5037 23.4274L16.9224 29.3624C16.6495 29.5183 16.3299 29.5183 16.057 29.3624L3.47577 23.4274C3.15809 23.2521 2.97949 22.9234 2.97949 22.5624V9.43735C2.97949 9.07635 3.15809 8.74765 3.47577 8.57245L16.057 2.63735C16.3299 2.48155 16.6495 2.48155 16.9224 2.63735Z" fill="#3B82F6"/>
  <path d="M11.5614 9.14285L18.6132 13.0754C19.0733 13.3328 19.3625 13.8242 19.3625 14.357V22.2221C19.3625 22.7549 19.0733 23.2463 18.6132 23.5037L11.5614 27.4361C11.1013 27.6936 10.5229 27.6936 10.0627 27.4361L3.0108 23.5037C2.55073 23.2463 2.26147 22.7549 2.26147 22.2221V14.357C2.26147 13.8242 2.55073 13.3328 3.0108 13.0754L10.0627 9.14285C10.5229 8.88542 11.1013 8.88542 11.5614 9.14285Z" fill="#1E293B"/>
  <path d="M21.5811 12.4286L24.3936 13.9679C24.6236 14.0966 24.7682 14.3423 24.7682 14.6086V17.6873C24.7682 17.9536 24.6236 18.1993 24.3936 18.328L21.5811 19.8673C21.3511 19.996 21.0618 19.996 20.8318 19.8673L18.0193 18.328C17.7893 18.1993 17.6447 17.9536 17.6447 17.6873V14.6086C17.6447 14.3423 17.7893 14.0966 18.0193 13.9679L20.8318 12.4286C21.0618 12.2999 21.3511 12.2999 21.5811 12.4286Z" fill="white" fill-opacity="0.5"/>
</svg>